<?xml version="1.0" encoding="UTF-8" standalone="no"?><!DOCTYPE svg PUBLIC "-//W3C//DTD SVG 1.1//EN" "http://www.w3.org/Graphics/SVG/1.1/DTD/svg11.dtd"><svg width="100%" height="100%" viewBox="0 0 46 43" version="1.1" xmlns="http://www.w3.org/2000/svg" xmlns:xlink="http://www.w3.org/1999/xlink" xml:space="preserve" xmlns:serif="http://www.serif.com/" style="fill-rule:evenodd;clip-rule:evenodd;stroke-linejoin:round;stroke-miterlimit:2;"><path d="M41.023,34.736l0,-8.624c1.493,0.061 2.948,0.121 4.461,0.184c-0.052,5.305 -0.104,10.585 -0.156,15.9l-16.125,0c0.058,-1.409 0.116,-2.804 0.176,-4.248l8.464,0l0.052,-0.101c-3.964,-4.023 -7.928,-8.046 -11.871,-12.048c1.02,-1.029 2.014,-2.032 3.03,-3.056c3.947,4.008 7.905,8.025 11.862,12.043c0.036,-0.017 0.071,-0.033 0.107,-0.05" style="fill:#231f20;fill-rule:nonzero;"/><path d="M29.016,19.306c-1.009,-1.023 -1.993,-2.022 -3.018,-3.061c4.012,-3.954 8.027,-7.912 12.116,-11.942l-8.692,0l0,-4.303l16.032,0l0,16.055l-4.438,0c0.06,-2.878 0.12,-5.746 0.182,-8.744c-4.11,4.048 -8.125,8.001 -12.182,11.995" style="fill:#231f20;fill-rule:nonzero;"/><path d="M16.43,22.95c1.043,1.025 2.041,2.006 3.091,3.038c-3.957,3.961 -7.917,7.926 -11.925,11.939l8.515,0l0,4.296c-5.352,-0.064 -10.692,-0.127 -16.111,-0.191c0.068,-5.303 0.135,-10.585 0.202,-15.897l4.268,0l0,8.592c4.062,-3.999 8.023,-7.9 11.96,-11.777" style="fill:#231f20;fill-rule:nonzero;"/><path d="M7.642,4.376c3.96,3.95 7.921,7.9 11.895,11.864c-1.053,1.019 -2.06,1.992 -3.097,2.994c-3.912,-3.915 -7.874,-7.881 -11.931,-11.942l0,8.746l-4.278,0l0,-16.036l15.881,0l0,4.257l-8.42,0c-0.017,0.039 -0.034,0.078 -0.05,0.117" style="fill:#231f20;fill-rule:nonzero;"/></svg>